<svg id="Layer_2" data-name="Layer 2" xmlns="http://www.w3.org/2000/svg" viewBox="0 0 308.12 161.63"><defs><style>.cls-1{fill:#fff;stroke:#000;stroke-miterlimit:10;}</style></defs><title>FishyFilled</title><polygon class="cls-1" points="9.33 44.03 48.67 79.36 132.33 44.7 186.33 34.03 181 6.7 209 30.7 260.67 34.7 300 58.36 302.33 64.36 289 81.03 304 97.03 285 118.36 233.67 132.03 207.33 130.69 180.67 156.03 185.33 130.69 114.67 110.03 52.33 83.69 43 85.03 12 117.69 8 117.36 3.33 104.03 10 94.36 23.33 83.69 26 80.03 8 67.69 4 52.36 9.33 44.03"/><g id="Layer_1" data-name="Layer 1"><circle cx="268.17" cy="63.58" r="7.54"/><path d="M366.07,70c-8.23-17-30.17-37.37-88.62-37.37-2.91,0-5.83,0-8.74.17l-29-25.71a3.65,3.65,0,0,0-4.63-.34,3.82,3.82,0,0,0-1.54,4.29l7.54,24.51c-62.22,9.6-120.84,39.77-133.53,46.62L71.42,46.56a3.69,3.69,0,0,0-5-.34c-.34.34-8.91,6.86-8.06,17.14.86,8.4,7.54,16.28,20.06,23.48Q59.67,97.89,58.39,110.49c-1,10.28,7.54,17,8.06,17.14a3.77,3.77,0,0,0,2.23.69,4.2,4.2,0,0,0,2.74-1l36.17-35.65c12.68,6.86,71.48,37,133.53,46.62l-7.54,24.51a3.73,3.73,0,0,0,1.54,4.29,4.87,4.87,0,0,0,2.06.69,3.78,3.78,0,0,0,2.57-1l29-25.71c2.91.17,5.83.17,8.74.17,58.45,0,80.39-20.23,88.62-37.37a3.87,3.87,0,0,0-.69-4.29L352.7,86.84l12.68-12.68A3.54,3.54,0,0,0,366.07,70ZM244.88,22l13,11.66c-3.09.34-6.17.51-9.08,1ZM68.67,119.4c-1.37-1.89-3.09-4.63-2.74-8.06.51-4.63,4.63-12.17,22.28-20.74a3.77,3.77,0,0,0,2.06-3.43,3.9,3.9,0,0,0-2.06-3.43C70.73,75.18,66.44,67.64,65.93,63A11,11,0,0,1,68.67,55l32.74,32.23Zm176.21,32.74,3.94-12.51c3.09.34,6.17.69,9.08,1ZM115,87.18c21.43-11.14,95.13-46.8,162.5-46.8h5.14a134.73,134.73,0,0,0,0,93.42h-5.14C210.09,134,136.38,98.32,115,87.18ZM344.3,84.44a4,4,0,0,0-1.2,2.74,3.41,3.41,0,0,0,1.2,2.74l13.54,13.37c-6.51,11.31-23.48,27.43-67.19,30.17a125.62,125.62,0,0,1,0-92.73c43.71,2.74,60.68,18.86,67.19,30.17Z" transform="translate(-58.3 -6.11)"/></g></svg>