<svg id="Layer_1" data-name="Layer 1" xmlns="http://www.w3.org/2000/svg" viewBox="0 0 319.26 165.07"><title>Fishy5</title><circle cx="276.76" cy="77.97" r="7.84"/><path d="M68.7,134.08a24.29,24.29,0,0,0,20.72,2c.2-.2.6-.2.8-.4L121,116.78h3a63,63,0,0,0,14.48,15.89c-8.25.8-17.9,3.22-22.73,9.05-3,3.62-3.82,8-2.61,13.07,2.41,9.25,7.64,12.47,11.67,13.48a15.69,15.69,0,0,0,4.42.6c13.68,0,30.57-14.48,36.81-20.11,21.72,9.05,48.88,14.48,78.24,14.48,59.13,0,96.14-21.12,116.46-38.82a5,5,0,0,0,1.61-3.22,4,4,0,0,0-1.41-3.42,46.88,46.88,0,0,1-8.65-11.87l16.29-6a4.22,4.22,0,0,0,2.61-2.61,4.32,4.32,0,0,0-.4-3.82A137.41,137.41,0,0,0,293.57,32.3c-1-8.65-6-22.12-21.32-26.75-20.11-6-57.12,4-70.8,23.33C165.44,35.72,136.68,51,124,71.32h-3L90.22,52.42a1.52,1.52,0,0,0-.8-.4A24.29,24.29,0,0,0,68.7,54C61.05,58.45,55.62,66.7,53.81,76.35a105.32,105.32,0,0,0-1.61,17.7,103.44,103.44,0,0,0,1.61,17.7C55.62,121.41,61.05,129.45,68.7,134.08Zm58.53,25.54c-1-.2-3.82-1-5.23-7.24-.8-2.82,0-4.22.8-5,4.22-5.23,19.11-6.64,28.16-6.24a61.78,61.78,0,0,0,6.24,3.42C147.94,152.58,134.47,161.63,127.23,159.62ZM360.54,93.25l-15.69,5.83a4.46,4.46,0,0,0-2.61,5.83,63.45,63.45,0,0,0,9.45,15.69,141.25,141.25,0,0,1-36.41,20.92,140.64,140.64,0,0,1-1.41-91.31A133,133,0,0,1,360.54,93.25ZM269.83,14a20.19,20.19,0,0,1,14.08,15.29,171.84,171.84,0,0,0-39.82-4.63,251.81,251.81,0,0,0-28,1.61C230.81,15.21,256,9.78,269.83,14ZM62.66,77.76c1.21-7.24,5.23-13.07,10.46-16.09A15.34,15.34,0,0,1,86,60.26l31.38,19.31a5.36,5.36,0,0,0,2.41.6h6.84a4.64,4.64,0,0,0,4-2.21c9.65-17.5,34-31.38,64.76-38.62l2,3.62a18.44,18.44,0,0,1,0,17.7,27.81,27.81,0,0,0,0,26.35,18.44,18.44,0,0,1,0,17.7l-6,11.06a4.38,4.38,0,0,0,1.81,6,4.05,4.05,0,0,0,2.21.6,4.42,4.42,0,0,0,4-2.41l6-11.06a27.81,27.81,0,0,0,0-26.35,18.44,18.44,0,0,1,0-17.7,27.81,27.81,0,0,0,0-26.35l-.8-1.41c7-1.21,14.28-2.21,21.52-2.82l4.63,8.45a18.44,18.44,0,0,1,0,17.7,27.81,27.81,0,0,0,0,26.35,18.44,18.44,0,0,1,0,17.7l-6,11.06a4.38,4.38,0,0,0,1.81,6,4.05,4.05,0,0,0,2.21.6,4.42,4.42,0,0,0,4-2.41l6-11.06a27.81,27.81,0,0,0,0-26.35,18.44,18.44,0,0,1,0-17.7,27.81,27.81,0,0,0,0-26.35l-2.61-4.83c2.61,0,5.43-.2,8.25-.2,24.54,0,44.85,5,61.35,12.47a148.63,148.63,0,0,0,1,98.35c-16.9,5.63-37.61,9.45-62.35,9.45-52.5,0-99.16-18.1-113.64-44a4.41,4.41,0,0,0-4-2.21H120a5.35,5.35,0,0,0-2.41.6L86.2,127.24a16.11,16.11,0,0,1-12.87-1.41c-5.43-3.22-9.25-9.05-10.46-16.09a85.5,85.5,0,0,1-1.41-16.09A103.72,103.72,0,0,1,62.66,77.76Z" transform="translate(-52.2 -3.81)"/></svg>