<svg id="Layer_1" data-name="Layer 1" xmlns="http://www.w3.org/2000/svg" viewBox="0 0 413.74 155.49"><title>Fishy2</title><circle cx="358.36" cy="67.79" r="8.82"/><path d="M421.08,99.33a4.78,4.78,0,0,0-2.94-3.18l-6.61-2.94L418.14,90a5.79,5.79,0,0,0,2.94-3.43,5.62,5.62,0,0,0-.49-4.41,19.65,19.65,0,0,0-5.39-6.37c-19.11-14.94-53.65-30.38-100.2-37-2-7.35-6.61-23-14.7-29.15a5.74,5.74,0,0,0-5.63-.73c-.24.24-31.6,13.72-53.9,15.68a5.34,5.34,0,0,0-4.9,5.39v6.61C185.4,40,137.38,51.56,107,68L89.85,63.81l-71-20.09A8.74,8.74,0,0,0,9.25,47.4a8.45,8.45,0,0,0,0,10l13,18.86A30.59,30.59,0,0,1,27.38,92v2a29.87,29.87,0,0,1-5.14,15.68l-13,18.86a8.45,8.45,0,0,0,0,10,9,9,0,0,0,7.35,3.92,6.78,6.78,0,0,0,2.21-.24l70.8-20.09L106.75,118c14.21,7.59,33.81,14.7,55.86,20.82l-4.41,18.37a5.73,5.73,0,0,0,1.22,5.14,4.87,4.87,0,0,0,3.92,1.71h1c10.53-2,18.13-5.88,22.29-12a20.9,20.9,0,0,0,2.94-6.37c32.09,6.86,66.64,11.27,95.55,11.27,70.07,0,104.61-26.95,129.85-46.55a20.62,20.62,0,0,0,5.39-6.61A4.75,4.75,0,0,0,421.08,99.33ZM246.65,34.9c18.86-2.69,40.42-11,48.75-14.45,3.19,3.92,5.88,10.78,7.59,17.15a327,327,0,0,0-35.52-2c-7.1,0-14,.24-21.07.49V34.9ZM21.25,56l34.54,9.8L36.69,82.18a38.37,38.37,0,0,0-5.63-12Zm10,60a38.38,38.38,0,0,0,5.63-12L56,120.4,21.5,130.2ZM177.8,145.64a17.36,17.36,0,0,1-6.86,5.14l2.21-9.06,5.88,1.47A5.77,5.77,0,0,1,177.8,145.64Zm168.07-8.33a124.68,124.68,0,0,1-7.59-51.94,5.66,5.66,0,0,0-5.14-5.88,5.51,5.51,0,0,0-5.88,5.14A137.12,137.12,0,0,0,335.33,140a211.31,211.31,0,0,1-50,5.63c-62.72,0-142.59-20.33-175.17-38.46a4.94,4.94,0,0,0-2.69-.73,3.11,3.11,0,0,0-1.47.24L67.8,116,41.1,92.72,67.8,69.44l38.46,9.31a5.53,5.53,0,0,0,3.92-.49c34.3-19.11,97.75-32.09,157.53-32.09,66.15,0,114.9,18.62,138.91,36.75l-10.53,4.9a5.63,5.63,0,0,0-3.19,4.9,5.11,5.11,0,0,0,3.19,4.9l10.53,4.9C391.93,114.52,373.55,128.49,345.87,137.31Z" transform="translate(-7.59 -8.52)"/><path d="M307.65,118.44a27.68,27.68,0,0,1-13.47,0l14.45-5.14A5.51,5.51,0,1,0,304.71,103l-27.19,9.8a5,5,0,0,0-3.43,4.16,5.77,5.77,0,0,0,2,5.14,40.38,40.38,0,0,0,24.5,8.08,41.52,41.52,0,0,0,9.31-1,5.56,5.56,0,0,0,4.16-6.61A5,5,0,0,0,307.65,118.44Z" transform="translate(-7.59 -8.52)"/></svg>