<svg id="Layer_1" data-name="Layer 1" xmlns="http://www.w3.org/2000/svg" viewBox="0 0 331.63 151.31"><title>Fishy3</title><circle cx="287.27" cy="62.21" r="7.07"/><path d="M196.24,159.78a4.1,4.1,0,0,0,3.14,2.16A104,104,0,0,0,218,163.51c34.35,0,58.48-15.9,63.19-19.43,42.78-6.67,76.54-28.46,94.4-42.39a16.52,16.52,0,0,0,4.32-5.3,4.41,4.41,0,0,0,.39-3.53A3.83,3.83,0,0,0,378,90.3l-5.3-2.36L378,85.4a4.64,4.64,0,0,0,2.36-2.75,4.5,4.5,0,0,0-.39-3.53,15.74,15.74,0,0,0-4.32-5.1C357.76,60.08,324,38.29,281.22,31.62c-5.69-3.93-37.88-25.32-81.84-17.86a4.45,4.45,0,0,0-3.14,2.16,5,5,0,0,0-.39,3.73l2.94,7.85c-7.46-5.1-12.76-7.26-15.9-6.28-4.32,1-42.78,17.66-51.81,44.94-1,.59-2,1-2.75,1.57L114.79,64.4,57.88,48.3a7,7,0,0,0-7.65,2.94,6.77,6.77,0,0,0,0,8l10.4,15.11a23.67,23.67,0,0,1,0,26.69l-10.4,15.11a6.77,6.77,0,0,0,0,8,7.18,7.18,0,0,0,5.89,3.14,5.43,5.43,0,0,0,1.77-.2l56.91-16.09h0l13.54-3.34c1,.59,2,1,2.75,1.57,9,27.28,47.49,44,51.81,44.94,3.14.79,8.44-1.37,15.9-6.28l-2.94,7.85A5.39,5.39,0,0,0,196.24,159.78Zm9.81-5.89L211,140.74a198.62,198.62,0,0,0,44.35,5.3,26.3,26.3,0,0,0,3.93-.2A99.86,99.86,0,0,1,206.05,153.89Zm154.26-62,8.44,3.93a218.32,218.32,0,0,1-48.48,28.06,103.37,103.37,0,0,1,0-72A211.85,211.85,0,0,1,368.55,79.9l-8.44,3.93a4.51,4.51,0,0,0-2.55,3.93A4.64,4.64,0,0,0,360.31,91.87ZM259,29.85c-1.18,0-2.55-.2-3.73-.2A198.62,198.62,0,0,0,211,35l-4.91-13.15A103.06,103.06,0,0,1,259,29.85Zm-74.19,0c2,.39,7.65,3.73,13.74,8.44a332.54,332.54,0,0,0-54,21.2C156,43,179.56,31.42,184.85,29.85Zm-117,76.54a32.2,32.2,0,0,0,0-36.7L60,58.31l32.38,9.22,7.65,20.61-7.65,20.61L60,118Zm60.05-7.26L103,105.22l5.89-15.7a4.33,4.33,0,0,0,0-3.14L103,70.68l24.92,6.08a4.43,4.43,0,0,0,3.14-.39c25.32-14.13,75.17-37.88,124-37.88A167.82,167.82,0,0,1,312,48.89a112,112,0,0,0,0,78.31,167.82,167.82,0,0,1-56.91,10.4c-48.87,0-98.72-23.75-124-37.88a4,4,0,0,0-2.16-.59A.88.88,0,0,0,127.94,99.13Zm16.68,17.27a332.54,332.54,0,0,0,54,21.2c-6.08,4.51-11.58,8-13.74,8.44C179.56,144.47,156,132.89,144.62,116.4Z" transform="translate(-48.9 -12.2)"/></svg>