<svg id="Layer_1" data-name="Layer 1" xmlns="http://www.w3.org/2000/svg" viewBox="0 0 344.71 161.94"><title>Fishy4</title><path d="M382.6,82.3a382.47,382.47,0,0,1-56-4.68c-.75-.19-1.5-.19-2.25-.37-2.81-.37-7.3-4.12-12.17-8-6.55-5.43-14.42-11.79-24.71-16.29-1.31-8.42-6.55-35.94-20-45.68a4.41,4.41,0,0,0-3.74-.56,4,4,0,0,0-2.62,2.81c-2.81,9.17-9.55,21.9-14.6,22.09h-2.62c-41.75.94-71,7.11-86.86,18.16-2.06.56-4.31.94-6.37,1.5C147.28,49.35,139,45,129.49,43.74A4.29,4.29,0,0,0,125.19,46c-2.43,4.68-10.3,18.16-16.1,22.84h0a52.91,52.91,0,0,0-9.55,8.42H91.11C79.32,58.71,62.47,37.56,46.56,37.56a4.21,4.21,0,0,0-4.12,3.56,4.31,4.31,0,0,0,2.81,4.68c.94.37,21.15,7.86,21.15,50.36s-20.22,50-21,50.36a4.23,4.23,0,0,0,1.31,8.24c15.91,0,32.76-21.15,44.56-39.69h8.42a52.91,52.91,0,0,0,9.55,8.42c5.8,4.87,13.48,18.16,16.1,22.84a4.49,4.49,0,0,0,3.74,2.25h.56c9.36-1.31,17.78-5.62,21.15-7.49a236.28,236.28,0,0,0,30,5.62l-7.68,15.73a4,4,0,0,0,.37,4.31,4,4,0,0,0,3.37,1.68h.75c15.35-2.81,25.27-7.86,29.58-15a11.33,11.33,0,0,0,1.87-4.87h6.37c83.87,0,118.13-43.25,122.43-49.24,1.5-1.12,4.87-4.31,5.43-8.24H383A4.16,4.16,0,0,0,387.09,87C386.9,84.17,385,82.3,382.6,82.3ZM243.88,39.81h2.81c9.73-.37,16.47-13.29,20-21.72,6,8,9.92,21.9,11.79,31.45-14.23-4.12-33.51-5.8-63.28-5.8-6.74,0-13.48.19-20,.75C208.68,41.86,225,40.37,243.88,39.81ZM131.18,52.54a43.76,43.76,0,0,1,7.49,2.25c-3.93,1.31-7.68,2.62-11.23,4.12C128.74,56.47,130.24,54.22,131.18,52.54Zm0,86.86c-.94-1.68-2.25-3.93-3.93-6.55A99.4,99.4,0,0,0,138.48,137,41.75,41.75,0,0,1,131.18,139.4Zm68.71,9.17c-1.31,2.25-5.24,6.18-15.54,9.17l5.24-10.67c3.56.37,7.11.56,10.86.75C200.07,148,200.07,148.2,199.88,148.57ZM332.24,92.41l-1.12,1.12c-.37.37-32.39,46.24-115.88,46.24-41.93,0-80.5-9.17-100.72-23.21h0c-.19-.19-.37-.37-.56-.37a43.13,43.13,0,0,1-9-8.24,4.38,4.38,0,0,0-3.37-1.5H88.68a4,4,0,0,0-3.93,3,151.33,151.33,0,0,1-16.1,21.9c3.56-8.42,6-19.84,6-35.2S72,69.38,68.65,61A164.24,164.24,0,0,1,84.37,82.68c0,.19,0,.19.19.37a4.22,4.22,0,0,0,3.93,2.81h12.92a4.69,4.69,0,0,0,3.37-1.5,43.15,43.15,0,0,1,9.55-8.61h0c20.22-14,58.78-23.21,100.72-23.21,33.51,0,53,2.25,67,7.68h0c10.11,3.93,18.16,10.48,24.71,15.91a79.25,79.25,0,0,0,8.8,6.74H303.22a4.12,4.12,0,0,0,0,8.24h30.7A18.12,18.12,0,0,1,332.24,92.41Z" transform="translate(-42.38 -6.48)"/><circle cx="234.26" cy="69.45" r="8.05"/><path d="M254.36,70.32a4.39,4.39,0,0,0-5.62,2.06,57.13,57.13,0,0,0,0,47,4.3,4.3,0,0,0,3.74,2.43,5.47,5.47,0,0,0,1.68-.37,4.27,4.27,0,0,0,2.06-5.62,48.27,48.27,0,0,1,0-40.06A3.94,3.94,0,0,0,254.36,70.32Z" transform="translate(-42.38 -6.48)"/></svg>