<svg id="Layer_3" data-name="Layer 3" xmlns="http://www.w3.org/2000/svg" viewBox="0 0 322.62 129.58"><defs><style>.cls-1{fill:#f9f9f9;}</style></defs><title>PlayerFilled</title><polygon class="cls-1" points="5.18 41.67 20.85 66.33 6.52 100.33 6.85 104 74.18 85.67 111.85 98.33 112.18 125 127.52 125 157.52 111.67 235.18 116 280.18 104.33 317.52 77.33 304.52 71.67 317.18 63 289.85 46.67 239.18 32.67 205.18 30 204.52 3.33 144.85 14 121.52 30.67 95.18 41.67 83.85 54.33 79.85 57 6.18 34.67 5.18 41.67"/><g id="Layer_2" data-name="Layer 2"><circle cx="279.48" cy="57.57" r="6.85"/><path d="M374.63,88.41,369.26,86l5.37-2.59a4.38,4.38,0,0,0,2.22-2.59,4.24,4.24,0,0,0-.37-3.33,15.35,15.35,0,0,0-4.26-4.81c-18.7-14.62-56.65-30.17-108.48-31.29V19.55a4.11,4.11,0,0,0-4.07-4.07c-69.23,0-118.48,42-128.29,51.09l-12.77-3.15L63.25,47.69A6.6,6.6,0,0,0,56,50.46a6.67,6.67,0,0,0,0,7.78L66.22,72.86a23.16,23.16,0,0,1,0,26.1L56,113.59a6.67,6.67,0,0,0,0,7.78,6.77,6.77,0,0,0,5.55,3,7,7,0,0,0,1.85-.19l55.35-15.74,13.33-3.15a184.73,184.73,0,0,0,29.62,12v22.58a4,4,0,0,0,3,3.89,39.29,39.29,0,0,0,11.11,1.3c9.44,0,23.7-2.59,37.21-15.36,20.18,3.52,40.73,5.74,58.5,5.74,54.61,0,81.45-20.92,101.08-36.28a16.07,16.07,0,0,0,4.26-5,4.16,4.16,0,0,0,.37-3.33A8.06,8.06,0,0,0,374.63,88.41Zm-119-47c-7.59,0-15.18.37-22.77.93L219.5,29a171.52,171.52,0,0,1,36.1-5Zm-77,3.15,4.81,4.81c-8.33,1.85-16.11,3.89-23.51,6.11A156.13,156.13,0,0,1,178.58,44.54ZM193,47.32l-6.66-6.66a188.84,188.84,0,0,1,23.88-9.07L221.9,43.24C212.09,44.17,202.46,45.46,193,47.32Zm-23.14,89.23V119.88c10.18,3,21.1,5.74,32.4,8C189,137.84,175.62,137.47,169.88,136.54Zm101.45-9.26c-48.87,0-111.26-15.74-136.62-30a3.81,3.81,0,0,0-3.15-.37L99.72,104.7A4.44,4.44,0,0,0,97.5,106l-32.4,9.07,8-11.29a31.21,31.21,0,0,0,0-35.54l-8-11.29L97.5,66a4.44,4.44,0,0,0,2.22,1.3l32,7.78h1.11c.37,0,.56,0,.74-.19.19,0,.37-.19.74-.19h.19c26.84-15,76.08-25,122.73-25,51.83,0,89.78,14.62,108.67,28.69l-8.33,3.89a4.26,4.26,0,0,0-2.41,3.7,3.86,3.86,0,0,0,2.41,3.7l8.52,3.89C347.6,108.22,322.05,127.29,271.33,127.29Z" transform="translate(-54.79 -15.47)"/><path d="M300.95,104.7c-8.7,1.85-15.55-1.67-19.81-5l20.18-7.22a4.16,4.16,0,1,0-3-7.78l-26.47,9.44a3.92,3.92,0,0,0-2.59,2.78,4.43,4.43,0,0,0,.74,3.7c.56.56,10.55,12.77,26.1,12.77a29.35,29.35,0,0,0,6.66-.74,4.2,4.2,0,0,0,3.15-5A4.08,4.08,0,0,0,300.95,104.7Z" transform="translate(-54.79 -15.47)"/></g></svg>